<?xml version="1.0" encoding="iso-8859-1"?>
<!-- Uploaded to: SVG Repo, www.svgrepo.com, Generator: SVG Repo Mixer Tools -->
<svg height="800px" width="800px" version="1.1" id="Layer_1" xmlns="http://www.w3.org/2000/svg" xmlns:xlink="http://www.w3.org/1999/xlink" 
	 viewBox="0 0 512 512" xml:space="preserve">
<path style="fill:#FF9F19;" d="M50.087,307.807C22.468,307.807,0,285.339,0,257.72c0-9.223,7.473-16.696,16.696-16.696
	s16.696,7.473,16.696,16.696c0,9.206,7.49,16.696,16.696,16.696s16.696-7.49,16.696-16.696c0-6.229-3.424-11.896-8.94-14.793
	c-15.082-7.939-24.451-24.369-24.451-42.88v-75.892c0-9.223,7.473-16.696,16.696-16.696s16.696,7.473,16.696,16.696v75.892
	c0,5.891,2.658,11.25,6.609,13.332c16.515,8.684,26.782,25.679,26.782,44.341C100.174,285.34,77.706,307.807,50.087,307.807z"/>
<path style="fill:#576573;" d="M250.435,107.459h-50.087V74.067h50.087c9.223,0,16.696-7.473,16.696-16.696
	s-7.473-16.696-16.696-16.696H16.696C7.473,40.676,0,48.149,0,57.372s7.473,16.696,16.696,16.696h16.696v33.391H16.696
	C7.473,107.459,0,114.932,0,124.154s7.473,16.696,16.696,16.696h233.739c9.223,0,16.696-7.473,16.696-16.696
	S259.657,107.459,250.435,107.459z M166.957,107.459h-33.391V74.067h33.391V107.459z M66.783,74.067h33.391v33.391H66.783V74.067z"
	/>
<path style="fill:#5CE6E6;" d="M328.348,207.633h-77.913c-9.223,0-16.696-7.473-16.696-16.696V57.372
	c0-9.223,7.473-16.696,16.696-16.696h77.913c9.223,0,16.696,7.473,16.696,16.696v133.565
	C345.043,200.161,337.57,207.633,328.348,207.633z"/>
<path style="fill:#51CCCC;" d="M328.348,40.676H256v166.957h72.348c9.223,0,16.696-7.473,16.696-16.696V57.372
	C345.043,48.149,337.57,40.676,328.348,40.676z"/>
<path style="fill:#FFD15D;" d="M328.348,341.198H150.261c-9.22,0-16.696-7.475-16.696-16.696V190.937
	c0-9.22,7.475-16.696,16.696-16.696h194.783v150.261C345.043,333.724,337.568,341.198,328.348,341.198z"/>
<path style="fill:#576573;" d="M150.261,478.601c-9.223,0-16.696-7.473-16.696-16.696v-70.619c0-9.223,7.473-16.696,16.696-16.696
	s16.696,7.473,16.696,16.696v70.619C166.957,471.128,159.484,478.601,150.261,478.601z"/>
<path style="fill:#485566;" d="M450.783,499.497c-9.223,0-16.696-7.473-16.696-16.696v-91.517c0-9.223,7.473-16.696,16.696-16.696
	s16.696,7.473,16.696,16.696v91.517C467.478,492.024,460.005,499.497,450.783,499.497z"/>
<path style="fill:#5CE6E6;" d="M431.304,504.715h-0.006c-16.011,0-31.239-6.908-41.777-18.956c-8.533-9.75-24.772-9.75-33.304,0
	c-10.544,12.049-25.777,18.956-41.783,18.956h-0.006c-16.011,0-31.239-6.908-41.777-18.956c-8.533-9.75-24.772-9.75-33.304,0
	c-10.544,12.049-25.777,18.956-41.783,18.956h-0.006c-16.011,0-31.239-6.908-41.777-18.956c-8.533-9.75-24.772-9.75-33.304,0
	c-10.544,12.049-25.777,18.956-41.783,18.956H80.69c-16.011,0-31.239-6.908-41.777-18.956c-2.853-3.261-6.532-5.592-10.652-6.739
	c-8.881-2.479-14.071-11.69-11.592-20.57c2.479-8.885,11.717-14.066,20.57-11.592c10.397,2.902,19.669,8.75,26.804,16.918
	c4.261,4.87,10.174,7.549,16.647,7.549h0.006c6.472,0,12.386-2.679,16.652-7.554c10.544-12.049,25.771-18.962,41.783-18.962
	s31.239,6.913,41.783,18.962c4.261,4.875,10.174,7.554,16.647,7.554h0.006c6.472,0,12.386-2.679,16.652-7.554
	c10.549-12.049,25.777-18.962,41.783-18.962s31.234,6.913,41.783,18.962c4.261,4.875,10.174,7.554,16.647,7.554h0.006
	c6.472,0,12.386-2.679,16.652-7.554c10.544-12.049,25.771-18.962,41.783-18.962s31.239,6.913,41.783,18.962
	c4.261,4.875,10.174,7.554,16.647,7.554h0.006c6.472,0,12.386-2.679,16.652-7.554c10.424-11.913,25.484-18.82,41.315-18.956
	c0.043,0,0.098,0,0.141,0c9.163,0,16.62,7.381,16.696,16.554c0.076,9.223-7.337,16.761-16.554,16.837
	c-6.402,0.055-12.25,2.734-16.467,7.554C462.543,497.808,447.31,504.715,431.304,504.715z"/>
<path style="fill:#485566;" d="M485.126,40.58c8.765-0.502,15.744-7.702,15.744-16.6c0-9.223-7.479-16.696-16.696-16.696
	c-10.128,0-83.883,0-100.174,0c-9.223,0-16.696,7.473-16.696,16.696c0,8.899,6.975,16.1,15.75,16.601
	c-0.454,8.175-14.652,263.733-15.722,282.997c-0.512,9.079,6.843,17.612,16.657,17.618c0,0,0.004,0.001,0.007,0.001h0.002H384
	h100.174c9.547,0,17.198-8.017,16.673-17.619C499.738,303.596,485.69,50.729,485.126,40.58z M418.153,125.834L454.6,93.146
	l4.55,81.882L418.153,125.834z M456.195,223.644l-52.994,56.173l6.239-112.278L456.195,223.644z M451.685,40.676l0.541,9.747
	l-38.182,34.244l2.444-43.991C416.489,40.676,451.685,40.676,451.685,40.676z M422.703,307.807l41.386-43.874l2.438,43.874H422.703z
	"/>
<g>
	<path style="fill:#B8C9D9;" d="M267.13,257.72c0,7.279-4.641,13.457-11.13,15.738c-1.736,0.623-3.617,0.957-5.565,0.957h-33.391
		c-9.227,0-16.696-7.469-16.696-16.696c0-9.227,7.469-16.696,16.696-16.696h33.391c1.948,0,3.829,0.334,5.565,0.957
		C262.489,244.263,267.13,250.44,267.13,257.72z"/>
	<path style="fill:#B8C9D9;" d="M495.304,407.981H116.87c-9.223,0-16.696-7.473-16.696-16.696v-66.783
		c0-9.223,7.473-16.696,16.696-16.696h378.435c9.217,0,16.696,7.473,16.696,16.696v66.783
		C512,400.509,504.521,407.981,495.304,407.981z"/>
</g>
<path style="fill:#F29E1B;" d="M256,341.198h72.348c9.22,0,16.696-7.475,16.696-16.696V174.241H256V341.198z"/>
<path style="fill:#9EACBA;" d="M495.304,307.807H256v100.174h239.304c9.217,0,16.696-7.473,16.696-16.696v-66.783
	C512,315.28,504.521,307.807,495.304,307.807z"/>
<path style="fill:#A2B1BF;" d="M267.13,257.72c0,7.279-4.641,13.457-11.13,15.738v-31.477
	C262.489,244.263,267.13,250.44,267.13,257.72z"/>
<path style="fill:#51CCCC;" d="M272.652,485.758c10.538,12.049,25.766,18.956,41.777,18.956h0.006
	c16.006,0,31.239-6.908,41.783-18.956c8.533-9.75,24.772-9.75,33.304,0c10.538,12.049,25.766,18.956,41.777,18.956h0.006
	c16.006,0,31.239-6.908,41.783-18.956c4.217-4.821,10.065-7.5,16.467-7.554c9.217-0.076,16.63-7.614,16.554-16.837
	c-0.076-9.174-7.533-16.554-16.696-16.554c-0.043,0-0.098,0-0.141,0c-15.832,0.136-30.891,7.043-41.315,18.956
	c-4.266,4.875-10.18,7.554-16.652,7.554h-0.006c-6.472,0-12.386-2.679-16.647-7.554c-10.544-12.049-25.771-18.962-41.783-18.962
	s-31.239,6.913-41.783,18.962c-4.266,4.875-10.18,7.554-16.652,7.554h-0.006c-6.472,0-12.386-2.679-16.647-7.554
	c-10.549-12.049-25.777-18.962-41.783-18.962v33.638C262.193,478.446,268.386,480.883,272.652,485.758z"/>
</svg>